<!-- <svg width="48" height="48" viewBox="0 0 48 48" fill="none" xmlns="http://www.w3.org/2000/svg">
<rect width="48" height="48" rx="8.88889" fill="white"/>
<path d="M11.26 30H7.9L13.76 16.6H18.04L23.94 30H20.5L19.24 27.04H12.54L11.26 30ZM14.96 21.42L13.7 24.34H18.08L16.82 21.42L16 19.34H15.78L14.96 21.42ZM27.6398 30H24.6398V16.6H27.6398V21.92H34.6398V16.6H37.6398V30H34.6398V24.62H27.6398V30Z" fill="url(#paint0_linear_1545_39)"/>
<defs>
<linearGradient id="paint0_linear_1545_39" x1="8" y1="35.5" x2="38.0109" y2="10.5484" gradientUnits="userSpaceOnUse">
<stop stop-color="#989FFF"/>
<stop offset="1" stop-color="#29A2FF"/>
</linearGradient>
</defs>
</svg> -->

 <!-- <svg xmlns="http://www.w3.org/2000/svg" height="2em" viewBox="0 0 320 512">! Font Awesome Free 6.4.2 by @fontawesome - https://fontawesome.com License - https://fontawesome.com/license (Commercial License) Copyright 2023 Fonticons, Inc.<style>svg{fill:#01b2fe}</style><path d="M99.1 105.4C79 114 68.2 127.2 65.2 144.8c-2.4 14.1-.7 23.2 2 29.4c2.8 6.3 7.9 12.4 16.7 18.6c19.2 13.4 48.3 22.1 84.9 32.5c1 .3 1.9 .6 2.9 .8c32.7 9.3 72 20.6 100.9 40.7c15.7 10.9 29.9 25.5 38.6 45.1c8.8 19.8 10.8 42 6.6 66.3c-7.3 42.5-35.3 71.7-71.8 87.3c-35.4 15.2-79.1 17.9-123.7 10.9l-.2 0 0 0c-24-3.9-62.7-17.1-87.6-25.6c-4.8-1.7-9.2-3.1-12.8-4.3C5.1 440.8-3.9 422.7 1.6 405.9s23.7-25.8 40.5-20.3c4.9 1.6 10.2 3.4 15.9 5.4c25.4 8.6 56.4 19.2 74.4 22.1c36.8 5.7 67.5 2.5 88.5-6.5c20.1-8.6 30.8-21.8 33.9-39.4c2.4-14.1 .7-23.2-2-29.4c-2.8-6.3-7.9-12.4-16.7-18.6c-19.2-13.4-48.3-22.1-84.9-32.5c-1-.3-1.9-.6-2.9-.8c-32.7-9.3-72-20.6-100.9-40.7c-15.7-10.9-29.9-25.5-38.6-45.1c-8.8-19.8-10.8-42-6.6-66.3l31.5 5.5L2.1 133.9C9.4 91.4 37.4 62.2 73.9 46.6c35.4-15.2 79.1-17.9 123.7-10.9c13 2 52.4 9.6 66.6 13.4c17.1 4.5 27.2 22.1 22.7 39.2s-22.1 27.2-39.2 22.7c-11.2-3-48.1-10.2-60.1-12l4.9-31.5-4.9 31.5c-36.9-5.8-67.5-2.5-88.6 6.5z"/></svg> -->

<svg xmlns="http://www.w3.org/2000/svg" height="1.5em" viewBox="0 0 576 512"><!--! Font Awesome Free 6.4.2 by @fontawesome - https://fontawesome.com License - https://fontawesome.com/license (Commercial License) Copyright 2023 Fonticons, Inc. --><style>svg{fill:#1190df}</style><path d="M357.7 8.5c-12.3-11.3-31.2-11.3-43.4 0l-208 192c-9.4 8.6-12.7 22-8.5 34c87.1 25.3 155.6 94.2 180.3 181.6H464c26.5 0 48-21.5 48-48V256h32c13.2 0 25-8.1 29.8-20.3s1.6-26.2-8.1-35.2l-208-192zM288 208c0-8.8 7.2-16 16-16h64c8.8 0 16 7.2 16 16v64c0 8.8-7.2 16-16 16H304c-8.8 0-16-7.2-16-16V208zM24 256c-13.3 0-24 10.7-24 24s10.7 24 24 24c101.6 0 184 82.4 184 184c0 13.3 10.7 24 24 24s24-10.7 24-24c0-128.1-103.9-232-232-232zm8 256a32 32 0 1 0 0-64 32 32 0 1 0 0 64zM0 376c0 13.3 10.7 24 24 24c48.6 0 88 39.4 88 88c0 13.3 10.7 24 24 24s24-10.7 24-24c0-75.1-60.9-136-136-136c-13.3 0-24 10.7-24 24z"/></svg>